<svg xmlns="http://www.w3.org/2000/svg" width="31.856" height="21.222" viewBox="0 0 31.856 21.222"><defs><style>.a,.b{fill:#fff;}.a{opacity:0.2;}</style></defs><g transform="translate(-2 -12.028)"><path class="a" d="M57,43h2.124v2.124H57Z" transform="translate(-25.799 -14.528)"/><path class="a" d="M57,27h2.124v2.124H57Z" transform="translate(-25.799 -7.023)"/><path class="a" d="M32.186,33.175h4.247V16.186L34.309,13l-2.124,3.186v4.247H29v2.124h3.186v6.371H29v2.124h3.186Z" transform="translate(-12.665 -0.456)"/><path class="a" d="M5.124,33.175H9.371V16.186L7.247,13,5.124,16.186v4.247H3v2.124H5.124v6.371H3v2.124H5.124Z" transform="translate(-0.469 -0.456)"/><g transform="translate(2 12.028)"><path class="b" d="M24,23h1.062V34.15H24Z" transform="translate(-12.32 -17.175)"/><path class="b" d="M24,46h1.062v1.062H24Z" transform="translate(-12.32 -27.963)"/><path class="b" d="M52,23h1.062V34.15H52Z" transform="translate(-25.453 -17.175)"/><path class="b" d="M52,46h1.062v1.062H52Z" transform="translate(-25.453 -27.963)"/><path class="b" d="M38,23h1.062V34.15H38Z" transform="translate(-18.886 -17.175)"/><path class="b" d="M38,46h1.062v1.062H38Z" transform="translate(-18.886 -27.963)"/><path class="b" d="M10,23h1.062V34.15H10Z" transform="translate(-5.753 -17.175)"/><path class="b" d="M10,46h1.062v1.062H10Z" transform="translate(-5.753 -27.963)"/><path class="b" d="M33.325,22.632a.531.531,0,0,0,.531-.531V19.977a.531.531,0,0,0-.531-.531H31.732V15.73a.534.534,0,0,0-.089-.295L29.519,12.25a.552.552,0,0,0-.883,0l-2.124,3.186a.534.534,0,0,0-.089.295v3.717H24.3V15.73a.534.534,0,0,0-.089-.295L22.086,12.25a.552.552,0,0,0-.883,0l-2.124,3.186a.534.534,0,0,0-.089.295v3.717H16.866V15.73a.534.534,0,0,0-.089-.295L14.653,12.25a.552.552,0,0,0-.883,0l-2.124,3.186a.534.534,0,0,0-.089.295v3.717H9.433V15.73a.534.534,0,0,0-.089-.295L7.22,12.25a.552.552,0,0,0-.883,0L4.213,15.435a.534.534,0,0,0-.089.295v3.717H2.531A.531.531,0,0,0,2,19.977V22.1a.531.531,0,0,0,.531.531H4.124v5.309H2.531A.531.531,0,0,0,2,28.472V30.6a.531.531,0,0,0,.531.531H4.124V32.72a.531.531,0,0,0,.531.531H8.9a.531.531,0,0,0,.531-.531V31.127h2.124V32.72a.531.531,0,0,0,.531.531h4.247a.531.531,0,0,0,.531-.531V31.127H18.99V32.72a.531.531,0,0,0,.531.531h4.247a.531.531,0,0,0,.531-.531V31.127h2.124V32.72a.531.531,0,0,0,.531.531H31.2a.531.531,0,0,0,.531-.531V31.127h1.593a.531.531,0,0,0,.531-.531V28.472a.531.531,0,0,0-.531-.531H31.732V22.632ZM3.062,21.57V20.508H4.124V21.57Zm0,8.495V29H4.124v1.062Zm5.309,2.124H5.186v-16.3L6.778,13.5l1.593,2.389Zm3.186-11.68V21.57H9.433V20.508Zm0,2.124v5.309H9.433V22.632ZM9.433,30.065V29h2.124v1.062ZM15.8,32.189H12.619v-16.3L14.211,13.5,15.8,15.889Zm3.186-11.68V21.57H16.866V20.508Zm0,2.124v5.309H16.866V22.632Zm-2.124,7.433V29H18.99v1.062Zm6.371,2.124H20.052v-16.3L21.644,13.5l1.593,2.389Zm3.186-2.124H24.3V29h2.124Zm0-2.124H24.3V22.632h2.124Zm0-6.371H24.3V20.508h2.124ZM30.67,32.189H27.485v-16.3L29.077,13.5l1.593,2.389Zm2.124-11.68V21.57H31.732V20.508Zm0,8.495v1.062H31.732V29Z" transform="translate(-2 -12.028)"/></g></g></svg>